Coordinates
version=1
nRows=8
nColumns=63
inDegrees=yes

Units are S.I. units (second, meters, Newtons, ...)
If the header above contains a line with 'inDegrees', this indicates whether rotational values are in degrees (yes) or radians (no).

endheader
time	pelvis_tilt	pelvis_list	pelvis_rotation	pelvis_tx	pelvis_ty	pelvis_tz	hip_flexion_r	hip_adduction_r	hip_rotation_r	knee_angle_r	knee_angle_r_beta	ankle_angle_r	subtalar_angle_r	mtp_angle_r	hip_flexion_l	hip_adduction_l	hip_rotation_l	knee_angle_l	knee_angle_l_beta	ankle_angle_l	subtalar_angle_l	mtp_angle_l	L5_S1_Flex_Ext	L5_S1_Lat_Bending	L5_S1_axial_rotation	L4_L5_Flex_Ext	L4_L5_Lat_Bending	L4_L5_axial_rotation	L3_L4_Flex_Ext	L3_L4_Lat_Bending	L3_L4_axial_rotation	L2_L3_Flex_Ext	L2_L3_Lat_Bending	L2_L3_axial_rotation	L1_L2_Flex_Ext	L1_L2_Lat_Bending	L1_L2_axial_rotation	L1_T12_Flex_Ext	L1_T12_Lat_Bending	L1_T12_axial_rotation	Abs_r3	Abs_r2	Abs_r1	Abs_t1	Abs_t2	neck_flexion	neck_bending	neck_rotation	arm_flex_r	arm_add_r	arm_rot_r	elbow_flex_r	pro_sup_r	wrist_flex_r	wrist_dev_r	arm_flex_l	arm_add_l	arm_rot_l	elbow_flex_l	pro_sup_l	wrist_flex_l	wrist_dev_l
      0.00000000	      2.16116826	     -5.76793456	     98.14045634	      0.27257072	      0.73546340	      0.94044062	      4.91084548	     -1.19530967	     24.20838618	      0.54677561	      0.00954303	     23.11481899	    -16.81567068	      0.00000000	      7.08967303	     -3.88862257	     12.18683158	      2.31896172	      0.04047352	     33.35641830	     -8.69973584	      0.00000000	      0.24291414	      0.36425027	     -0.57624383	      0.45111586	      0.48445286	     -0.61225907	      0.39908365	      0.88563811	     -0.61225907	      0.27762657	      0.88563811	     -0.50421335	      0.22557007	      0.74277915	     -0.46819811	      0.13880114	      0.56422367	     -0.43218287	      1.73511143	      4.12047191	     -3.20489530	      0.00000000	      0.00000000	     26.97196165	      4.41007095	     13.12767389	     18.65663618	    -10.61285633	     71.60961411	     49.24494255	     77.52589812	      1.58153572	      2.93550167	     14.67687480	     -9.96354681	     59.32325268	     52.03701152	     67.82167382	      2.59100852	     13.35908529
      0.01694915	      2.50206851	     -5.56627765	     99.28866758	      0.27122210	      0.73570297	      0.93936429	      4.46782353	     -0.88122243	     22.00053125	      0.50734199	      0.00885479	     23.30369881	    -16.43128649	      0.00000000	      7.49449319	     -4.21940893	      7.00347057	      3.77518659	      0.06588944	     34.30086615	     -3.26171981	      0.00000000	      0.21860502	      0.39792479	     -0.76410533	      0.40597139	      0.52923997	     -0.81186192	      0.35914619	      0.96751433	     -0.81186192	      0.24984368	      0.96751433	     -0.66859217	      0.20299662	      0.81144823	     -0.62083558	      0.12491091	      0.61638550	     -0.57307900	      1.56147382	      4.50140481	     -4.24972464	      0.00000000	      0.00000000	     27.03765420	      4.52211351	     13.33577873	     18.23891544	    -10.62433394	     70.45507684	     49.63326103	     77.69191715	      0.85307455	      3.93183344	     14.64098215	     -9.81647739	     60.20345061	     52.42364582	     58.29562743	     -2.02373214	     12.65420639
      0.03389831	      2.66825003	     -5.61041687	     99.63330291	      0.27093049	      0.73567597	      0.93843169	      4.40050034	     -0.73402044	     19.76792663	      0.47690077	      0.00832349	     23.96238866	    -14.40201229	      0.00000000	      7.72955628	     -4.38415957	      5.53381461	      4.46787682	      0.07797916	     34.11372604	     -2.87938778	      0.00000000	      0.23392295	      0.40912218	     -0.81519066	      0.43441830	      0.54413251	     -0.86614007	      0.38431201	      0.99473968	     -0.86614007	      0.26735053	      0.99473968	     -0.71329183	      0.21722085	      0.83428196	     -0.66234241	      0.13366357	      0.63373026	     -0.61139299	      1.67088821	      4.62807198	     -4.53384588	      0.00000000	      0.00000000	     27.05625508	      4.64518824	     13.33898636	     18.19849079	    -10.65896542	     70.41887117	     49.82238990	     76.28546379	      0.53798784	      4.04778213	     14.57810355	     -9.72114578	     59.91235524	     52.44885590	     57.56626153	     -2.38086778	     12.14080333
      0.05084746	      3.01102312	     -5.20238445	    101.28958526	      0.26967416	      0.73618509	      0.93819816	      3.83007506	     -0.31653544	     17.82138435	      0.47351902	      0.00826447	     23.91348559	    -15.18394157	      0.00000000	      8.60152804	     -5.30056591	     -5.58944917	      6.70563141	      0.11703535	     36.89774891	     12.57870004	      0.00000000	      0.18390168	      0.44419609	     -1.13178888	      0.34152382	      0.59078080	     -1.20252569	      0.30213208	      1.08001838	     -1.20252569	      0.21018123	      1.08001838	     -0.99031527	      0.17077110	      0.90580467	     -0.91957847	      0.10508142	      0.68805975	     -0.84884166	      1.31359134	      5.02483505	     -6.29467022	      0.00000000	      0.00000000	     27.00288778	      4.85279958	     13.94428647	     18.30290159	    -10.58798677	     70.07893733	     50.14093401	     80.58686581	     -0.89928117	      4.22190092	     14.73823758	     -9.98655831	     61.44481090	     53.28829055	     46.32256591	     -7.42312237	     10.17419010
      0.06779661	      3.12147569	     -4.97036430	    101.73667482	      0.26925443	      0.73653152	      0.93728378	      3.51336849	     -0.13947577	     16.83074932	      0.46511759	      0.00811783	     24.10231207	    -15.15240334	      0.00000000	      8.38603118	     -5.45448868	     -5.70077723	      6.78109958	      0.11835251	     36.89365663	     13.18044372	      0.00000000	      0.16656318	      0.45461442	     -1.23781689	      0.30932449	      0.60463718	     -1.31518044	      0.27364665	      1.10534950	     -1.31518044	      0.19036506	      1.10534950	     -1.08308978	      0.15467057	      0.92704972	     -1.00572622	      0.09517420	      0.70419774	     -0.92836266	      1.18974416	      5.14268923	     -6.88436617	      0.00000000	      0.00000000	     26.93654655	      4.79378078	     13.80040273	     18.52099847	    -10.61730218	     70.47607833	     50.32556395	     81.87779200	     -1.51200672	      3.97572413	     14.38530043	     -9.98415142	     60.64823905	     53.39839500	     45.64588218	     -7.87250518	      9.49963220
      0.08474576	      3.17409223	     -4.88965131	    102.10633970	      0.26903977	      0.73668775	      0.93663860	      3.39887672	     -0.04163804	     15.20304372	      0.47272204	      0.00825056	     24.62824014	    -13.97808293	      0.00000000	      8.43413934	     -5.57012776	     -6.47056217	      7.00838660	      0.12231942	     37.18989126	     14.84615279	      0.00000000	      0.17162644	      0.45816162	     -1.30870312	      0.31872746	      0.60935495	     -1.39049707	      0.28196508	      1.11397416	     -1.39049707	      0.19615186	      1.11397416	     -1.14511523	      0.15937231	      0.93428318	     -1.06332129	      0.09806735	      0.70969235	     -0.98152734	      1.22591051	      5.18281588	     -7.27861416	      0.00000000	      0.00000000	     26.79102135	      4.92596197	     14.08684819	     18.79581777	    -10.71376816	     71.03120960	     50.49015718	     85.13548591	     -2.48416412	      3.14515274	     14.50781895	    -10.18360420	     61.34545603	     53.73343243	     42.25352623	     -9.10057501	      8.41661044
      0.10169492	      3.16242913	     -4.86953479	    102.04002732	      0.26952357	      0.73681877	      0.93611759	      3.40247749	      0.01047917	     14.96320670	      0.48489351	      0.00846299	     24.69119174	    -14.12439308	      0.00000000	      8.38896296	     -5.57361369	     -6.27737295	      6.98853761	      0.12197299	     37.29585886	     15.00961222	      0.00000000	      0.17666577	      0.45136932	     -1.27704233	      0.32808600	      0.60032119	     -1.35685748	      0.29024419	      1.09745936	     -1.35685748	      0.20191131	      1.09745936	     -1.11741204	      0.16405183	      0.92043231	     -1.03759689	      0.10094682	      0.69917107	     -0.95778175	      1.26190591	      5.10597998	     -7.10252632	      0.00000000	      0.00000000	     26.75389512	      4.92229885	     14.05991554	     18.85126226	    -10.74128038	     71.08734812	     50.58303530	     85.20468407	     -2.48701836	      3.10495928	     14.54114731	    -10.21649556	     61.27196166	     53.75556528	     42.20810138	     -9.12000942	      8.35558424
      0.11864407	      3.13186437	     -4.84677075	    102.06008024	      0.26972507	      0.73681766	      0.93549375	      3.39161728	      0.03637090	     14.62767709	      0.50604896	      0.00883222	     24.72559351	    -14.29026551	      0.00000000	      8.31462075	     -5.53666952	     -5.96734505	      6.90856847	      0.12057727	     37.56649187	     15.27459768	      0.00000000	      0.18141043	      0.44231152	     -1.23751132	      0.33689730	      0.58827432	     -1.31485577	      0.29803919	      1.07543623	     -1.31485577	      0.20733398	      1.07543623	     -1.08282240	      0.16845772	      0.90196165	     -1.00547795	      0.10365792	      0.68514054	     -0.92813349	      1.29579653	      5.00351638	     -6.88266669	      0.00000000	      0.00000000	     26.73931512	      4.96374627	     13.94689462	     18.86223759	    -10.88402253	     71.19132786	     50.75806307	     85.38774997	     -2.52566903	      2.98146690	     14.56022218	    -10.16289555	     61.15626623	     53.81884472	     42.12700049	     -9.14552599	      8.24117864
